<?xml version="1.0" encoding="utf-8"?>
<!-- Generator: Adobe Illustrator 19.1.0, SVG Export Plug-In . SVG Version: 6.00 Build 0)  -->
<!DOCTYPE svg PUBLIC "-//W3C//DTD SVG 1.1//EN" "http://www.w3.org/Graphics/SVG/1.1/DTD/svg11.dtd">
<svg version="1.1" id="Layer_1" xmlns="http://www.w3.org/2000/svg" xmlns:xlink="http://www.w3.org/1999/xlink" x="0px" y="0px"
	 viewBox="0 0 120 120" enable-background="new 0 0 120 120" xml:space="preserve">
<circle fill="#204056" cx="60" cy="60" r="60"/>
<path fill="#FFFFFF" d="M60,24L24,60l36,36l36-36L60,24z M29.6,60l21-21l4.9,4.9l-2.3,2.3l5.4,5.4v17.8l-5.4,5.4l7.4,7.4l7.4-7.4
	l-5.4-5.4V51.6l0.4-0.4l6.8,6.8l-2.3,2.3l7.4,7.4l7.4-7.4L74.8,53l-2.3,2.3l-6.8-6.8l2.3-2.3l-7.4-7.4L58.2,41l-4.9-4.9l6.6-6.6
	L90.4,60L60,90.4L29.6,60z M62.4,74.8l-1.9,1.9l-1.9-1.9l1.9-1.9L62.4,74.8z M60.5,48l-1.9-1.9l1.9-1.9l1.9,1.9L60.5,48z M72.9,60.4
	l1.9-1.9l1.9,1.9l-1.9,1.9L72.9,60.4z"/>
</svg>
